# xmcd CD database file
#
# Track frame offsets:
#	150
#	13648
#	35369
#	50606
#	83690
#	102829
#	128140
#	135040
#	154694
#	165079
#	187854
#	195979
#
# Disc length: 3071 seconds
#
# Revision: 0
# Processed by: cddbd v1.5.2PL0 Copyright (c) Steve Scherf et al.
# Submitted via: CDex 1.51
#
DISCID=7c0bfd0c
DTITLE=Mischa Schumann - The logical turn
DYEAR=2007
DGENRE=Jazz
TTITLE0=we might turn it into jazz
TTITLE1=winterwetterland
TTITLE2=dancing tschörrmens
TTITLE3=all that came to your mind
TTITLE4=p.s.t.
TTITLE5=lie and order
TTITLE6=pain in advance
TTITLE7=simple city
TTITLE8=schnelle welt
TTITLE9=spirits in the material world
TTITLE10=pain in advance II
TTITLE11=collective thoughts
EXTD=YEAR: 2007
EXTT0=
EXTT1=
EXTT2=
EXTT3=
EXTT4=
EXTT5=
EXTT6=
EXTT7=
EXTT8=
EXTT9=
EXTT10=
EXTT11=
PLAYORDER=
